<svg class="t-sociallinks__svg" xmlns="http://www.w3.org/2000/svg" width="30" height="30" viewBox="0 0 99 99" xml:space="preserve"><path style="fill:#fff" fill-rule="evenodd" clip-rule="evenodd" d="M49 98c27.062 0 49-21.938 49-49S76.062 0 49 0 0 21.938 0 49s21.938 49 49 49ZM22 34c.444 21.32 11.104 34.132 29.793 34.132h1.06V55.935c6.867.683 12.06 5.706 14.144 12.197h9.704c-2.665-9.703-9.67-15.067-14.043-17.117C67.031 48.487 73.181 42.337 74.65 34h-8.815c-1.913 6.765-7.584 12.915-12.982 13.496V34h-8.816v23.643C38.571 56.277 31.67 49.648 31.362 34H22Z"/></svg>